<svg width="22" height="22" viewBox="0 0 22 22" fill="none" xmlns="http://www.w3.org/2000/svg">
<path fill-rule="evenodd" clip-rule="evenodd" d="M0.87597 0.0279535C0.504381 0.115768 0.132234 0.453348 0.0301263 0.795193C-0.0147531 0.945493 -0.00835864 1.29019 0.0417713 1.42281C0.0662643 1.48753 0.181073 1.79864 0.296938 2.11415C0.412803 2.42967 0.518373 2.71429 0.531572 2.74665C0.544743 2.77901 0.601678 2.93125 0.658085 3.08497C0.714493 3.23868 0.842472 3.58288 0.942439 3.84985C1.04243 4.11683 1.18329 4.49412 1.25548 4.68829C1.32767 4.88245 1.39771 5.06779 1.41115 5.10015C1.42458 5.13251 1.51689 5.38404 1.61627 5.6591C1.71565 5.93417 1.80805 6.1857 1.82158 6.21806C1.8351 6.25042 1.89233 6.40266 1.94873 6.55637C2.00514 6.71008 2.13312 7.05428 2.23309 7.32126C2.33308 7.58823 2.47394 7.96553 2.54613 8.15969C2.61832 8.35385 2.68813 8.53919 2.70127 8.57155C2.71444 8.60391 2.74741 8.69314 2.7746 8.76983C2.80177 8.8465 2.83506 8.9161 2.84858 8.92449C2.86207 8.93284 3.03593 8.9662 3.23492 8.99862C3.60543 9.05896 3.80615 9.09303 4.10271 9.14583C4.19546 9.16237 4.43637 9.20282 4.63804 9.23574C5.27444 9.33962 5.31768 9.34676 5.78202 9.42469C6.03208 9.46667 6.30928 9.51269 6.39801 9.52698C6.48674 9.54125 6.80354 9.59385 7.102 9.64386C7.40046 9.69388 7.84266 9.76748 8.08465 9.80746C8.32665 9.84744 8.60053 9.89351 8.69331 9.90984C9.06434 9.97515 9.57333 10.0611 10.094 10.1464C10.1827 10.1609 10.3345 10.186 10.4313 10.2021C10.5281 10.2183 10.7327 10.2524 10.8859 10.2778C11.0392 10.3033 11.2405 10.3369 11.3333 10.3525C11.4261 10.3681 11.5778 10.3935 11.6706 10.4091C11.7634 10.4247 11.9647 10.4583 12.1179 10.4838C12.2712 10.5092 12.4692 10.5424 12.5579 10.5574C12.6467 10.5724 12.7985 10.5975 12.8953 10.6132C12.9921 10.6288 13.2362 10.6691 13.4379 10.7027C13.7826 10.7602 13.8928 10.7789 14.3106 10.8513C14.4881 10.8821 14.97 10.9614 15.1319 10.9865C15.1843 10.9946 15.2272 11.0133 15.2272 11.028C15.2272 11.0427 15.1843 11.0618 15.1319 11.0704C15.0794 11.0791 14.7924 11.1268 14.4939 11.1765C14.1954 11.2262 13.8786 11.2786 13.7899 11.2929C13.3459 11.3645 12.8613 11.4452 12.5579 11.498C12.3724 11.5303 12.0886 11.5774 11.9273 11.6027C11.7659 11.628 11.5679 11.6608 11.4873 11.6754C11.142 11.7382 10.9624 11.7685 10.5193 11.8387C10.2612 11.8796 9.98396 11.926 9.9033 11.9418C9.82263 11.9576 9.26824 12.0502 8.67131 12.1476C8.07439 12.2449 7.52 12.3375 7.43933 12.3533C7.28906 12.3827 6.34703 12.5396 6.03135 12.5878C5.93455 12.6025 5.65735 12.649 5.41536 12.691C5.17336 12.733 4.89617 12.7795 4.79937 12.7943C4.70257 12.809 4.42537 12.8552 4.18338 12.8969C3.94138 12.9386 3.67078 12.984 3.58205 12.9979C3.26496 13.0473 2.86586 13.1208 2.84529 13.1336C2.8338 13.1407 2.78895 13.2424 2.74568 13.3597C2.60031 13.7532 2.4447 14.17 1.9248 15.5585C1.85513 15.7446 1.70366 16.155 1.58817 16.4705C1.47272 16.786 1.3211 17.1964 1.25126 17.3825C1.18138 17.5685 1.04249 17.9392 0.942527 18.2062C0.842589 18.4731 0.703757 18.8438 0.634003 19.0299C0.564249 19.216 0.412862 19.6264 0.297584 19.9419C0.182305 20.2574 0.074243 20.5512 0.0574939 20.5948C0.0407154 20.6384 0.0315928 20.7973 0.0372248 20.9478C0.0456726 21.1743 0.0614537 21.2502 0.128626 21.3874C0.264819 21.6655 0.506434 21.8684 0.821793 21.9693C0.953116 22.0113 1.27114 22.01 1.42268 21.9668C1.53294 21.9353 4.27639 20.5619 9.40464 17.9708C11.347 16.9894 15.8851 14.7023 19.6418 12.8114C21.8276 11.7113 21.8163 11.7185 21.9394 11.3529C22.0184 11.1183 22.02 10.9418 21.9452 10.699C21.8755 10.4727 21.7377 10.2702 21.5614 10.135C21.4897 10.0801 19.9792 9.30411 18.2045 8.41066C16.4299 7.51719 13.8295 6.20655 12.4259 5.49809C10.2238 4.38663 8.36942 3.45141 2.72057 0.603471C2.12335 0.302342 1.57436 0.0442809 1.49448 0.0271003C1.32488 -0.00937883 1.03217 -0.00896699 0.87597 0.0279535Z" fill="#F5F5F5"/>
</svg>
